<svg  viewBox="0 0 1024 1024" version="1.1" xmlns="http://www.w3.org/2000/svg"  ><path fill="#978CFF" d="M878.933333 819.2h-768c-59.733333 0-106.666667-46.933333-106.666666-106.666667v-512c0-59.733333 46.933333-106.666667 106.666666-106.666666h768c59.733333 0 106.666667 46.933333 106.666667 106.666666v512c0 59.733333-46.933333 106.666667-106.666667 106.666667z m-768-682.666667c-34.133333 0-64 29.866667-64 64v512c0 34.133333 29.866667 64 64 64h768c34.133333 0 64-29.866667 64-64v-512c0-34.133333-29.866667-64-64-64h-768zM682.666667 938.666667H298.666667c-12.8 0-21.333333-8.533333-21.333334-21.333334s8.533333-21.333333 21.333334-21.333333h384c12.8 0 21.333333 8.533333 21.333333 21.333333s-8.533333 21.333333-21.333333 21.333334zM413.866667 473.6l-38.4-38.4c-4.266667-4.266667-8.533333-4.266667-8.533334 0l-25.6 29.866667c-4.266667 4.266667-4.266667 8.533333 0 8.533333l38.4 38.4h8.533334l25.6-25.6c4.266667-4.266667 4.266667-8.533333 0-12.8zM512 366.933333c17.066667 0 29.866667-12.8 29.866667-25.6 0-17.066667-12.8-29.866667-25.6-29.866666s-29.866667 12.8-29.866667 29.866666c0 12.8 12.8 25.6 25.6 25.6zM486.4 234.666667C426.666667 234.666667 371.2 256 332.8 298.666667c-38.4 38.4-64 93.866667-64 157.866666 0 119.466667 98.133333 221.866667 221.866667 221.866667s221.866667-98.133333 221.866666-221.866667-106.666667-221.866667-226.133333-221.866666z m174.933333 217.6c0 42.666667-12.8 76.8-38.4 106.666666L512 448c0-12.8 8.533333-34.133333 8.533333-34.133333 8.533333 12.8 21.333333 21.333333 34.133334 25.6s29.866667-4.266667 21.333333-12.8c-4.266667-4.266667-17.066667-4.266667-25.6-8.533334-8.533333-8.533333-21.333333-21.333333-25.6-29.866666-8.533333-12.8-29.866667-17.066667-42.666667-17.066667-8.533333 0-21.333333 8.533333-34.133333 17.066667L375.466667 315.733333c29.866667-21.333333 68.266667-38.4 106.666666-38.4 102.4 0 179.2 76.8 179.2 174.933334z m-196.266666-51.2c4.266667 0 8.533333-4.266667 8.533333-4.266667v8.533333l-8.533333-4.266666z m-157.866667 51.2c0-42.666667 17.066667-81.066667 38.4-110.933334l68.266667 68.266667c-8.533333 12.8-21.333333 25.6-17.066667 29.866667 4.266667 4.266667 8.533333 4.266667 8.533333 4.266666 8.533333-4.266667 12.8-8.533333 21.333334-21.333333l34.133333 34.133333c-4.266667 12.8-4.266667 21.333333-4.266667 29.866667-4.266667 25.6-12.8 25.6-29.866666 46.933333s-4.266667 25.6 4.266666 25.6 46.933333-38.4 51.2-51.2c4.266667-8.533333 4.266667-21.333333 4.266667-25.6l38.4 38.4c0 8.533333 0 17.066667 4.266667 29.866667 4.266667 8.533333 4.266667 12.8 8.533333 12.8s12.8-4.266667 12.8-12.8v-4.266667l46.933333 46.933334c-29.866667 25.6-68.266667 38.4-110.933333 38.4-98.133333 0-179.2-81.066667-179.2-179.2z"></path></svg>