<svg xmlns="http://www.w3.org/2000/svg"    viewBox="0 0 1024 1024"><path style="fill:#ffd93b" d="M151.466667 791.04 211.626667 851.2 288.426667 774.826667 227.84 714.24M469.333333 957.866667C482.986667 957.866667 554.666667 957.866667 554.666667 957.866667L554.666667 832 469.333333 832M512 234.666667C370.773333 234.666667 256 349.44 256 490.666667 256 631.893333 370.773333 746.666667 512 746.666667 653.226667 746.666667 768 631.893333 768 490.666667 768 349.013333 653.226667 234.666667 512 234.666667M853.333333 533.333333 981.333333 533.333333 981.333333 448 853.333333 448M735.573333 774.826667 812.373333 851.2 872.533333 791.04 796.16 714.24M872.533333 190.293333 812.373333 130.133333 735.573333 206.506667 796.16 267.093333M554.666667 23.466667 469.333333 23.466667 469.333333 149.333333 554.666667 149.333333M170.666667 448 42.666667 448 42.666667 533.333333 170.666667 533.333333M288.426667 206.506667 211.626667 130.133333 151.466667 190.293333 227.84 267.093333 288.426667 206.506667Z"  ></path></svg>