<?xml version="1.0" standalone="no"?><!DOCTYPE svg PUBLIC "-//W3C//DTD SVG 1.1//EN" "http://www.w3.org/Graphics/SVG/1.1/DTD/svg11.dtd"><svg t="1698931262321" class="icon" viewBox="0 0 1024 1024" version="1.1" xmlns="http://www.w3.org/2000/svg" p-id="3912" xmlns:xlink="http://www.w3.org/1999/xlink" width="200" height="200"><path d="M208.979592 1024h606.040816c115.461224 0 208.979592-93.518367 208.979592-208.979592V208.979592C1024 93.518367 930.481633 0 815.020408 0H208.979592C93.518367 0 0 93.518367 0 208.979592v606.040816c0 115.461224 93.518367 208.979592 208.979592 208.979592z" fill="#B30B00" p-id="3913"></path><path d="M831.425306 595.591837c13.374694 13.374694 19.644082 36.780408 10.866939 52.767347-6.269388 16.718367-22.987755 36.780408-69.799184 36.780408-33.436735 0-100.310204-9.613061-173.453061-76.591021-63.529796 10.03102-126.641633 30.093061-166.765714 43.572245C382.014694 739.160816 311.797551 835.918367 241.998367 835.918367c-16.718367 0-33.436735-3.343673-46.811428-16.718367-13.374694-10.03102-20.062041-30.197551-16.718368-46.915918 10.03102-60.290612 126.641633-113.475918 180.140409-133.642449 39.706122-69.903673 73.247347-159.973878 93.309387-220.26449-36.884898-83.278367-46.915918-163.317551-23.405714-203.546123 10.03102-16.718367 26.749388-26.749388 46.811429-26.749387 53.080816 0 73.142857 49.841633 73.142857 100.101224 0 53.603265-13.374694 110.132245-30.093061 160.391837 13.374694 20.062041 46.393469 73.247347 93.204898 120.163265 33.018776-3.343673 169.691429-26.749388 219.84653 26.853878z m-73.560816 0c-40.124082-6.791837-96.548571 0-119.954286 3.343673 26.749388 23.405714 59.768163 40.124082 96.548572 50.259592 30.093061 6.687347 46.811429-6.791837 50.155102-20.166531 3.343673-20.062041-13.374694-30.093061-26.749388-33.436734zM474.488163 375.222857c13.374694-36.780408 20.062041-79.934694 23.405715-120.163265 0-16.718367-3.343673-36.780408-20.062041-36.780408-6.687347 0-13.374694 3.343673-16.718368 10.03102-10.03102 20.062041-13.374694 73.665306 13.374694 146.912653z m86.93551 203.546123c-13.374694-16.300408-43.467755-49.841633-60.186122-79.934694-6.687347 20.062041-26.749388 76.59102-43.467755 106.788571 46.811429-16.822857 106.997551-29.779592 103.653877-26.853877zM211.069388 779.389388c-3.343673 6.687347 0 13.374694 3.343673 20.062041 3.343673 3.343673 10.03102 3.343673 13.374694 3.343673 26.749388 0 70.217143-46.811429 116.610612-120.163265-76.486531 33.123265-129.985306 69.903673-133.328979 96.757551z" fill="#FFFFFF" p-id="3914"></path></svg>