<?xml version="1.0" standalone="no"?><!DOCTYPE svg PUBLIC "-//W3C//DTD SVG 1.1//EN" "http://www.w3.org/Graphics/SVG/1.1/DTD/svg11.dtd"><svg t="1698931238784" class="icon" viewBox="0 0 1024 1024" version="1.1" xmlns="http://www.w3.org/2000/svg" p-id="3425" xmlns:xlink="http://www.w3.org/1999/xlink" width="200" height="200"><path d="M208.979592 1024h606.040816c115.461224 0 208.979592-93.518367 208.979592-208.979592V208.979592C1024 93.518367 930.481633 0 815.020408 0H208.979592C93.518367 0 0 93.518367 0 208.979592v606.040816c0 115.461224 93.518367 208.979592 208.979592 208.979592z" fill="#00005B" p-id="3426"></path><path d="M418.899592 622.341224H255.268571l-33.436734 103.653878c-0.940408 3.970612-4.388571 6.582857-8.359184 6.164898h-82.755918c-4.806531 0-6.164898-2.612245-4.806531-7.941224L267.598367 318.693878c1.253878-4.388571 2.612245-8.359184 4.388572-13.583674 1.776327-9.299592 2.612245-18.912653 2.612245-28.630204-0.417959-2.194286 1.358367-4.388571 3.552653-4.806531h113.998367c3.030204 0 5.22449 1.358367 5.642449 3.552653l160.705306 448.156735c1.253878 4.806531 0 7.000816-4.493061 7.000816h-91.95102c-3.030204 0.417959-6.164898-1.776327-7.000817-4.80653l-36.153469-105.430204v2.194285z m-26.331429-87.457959c-2.612245-9.195102-6.164898-20.27102-10.13551-31.660408-3.970612-11.807347-7.941224-24.555102-11.911837-37.825306-4.388571-13.583673-8.359184-26.749388-12.747755-40.333061-4.388571-13.688163-8.359184-26.435918-11.911837-39.183674-3.448163-12.225306-6.582857-23.719184-9.613061-34.272653h-0.940408a541.152653 541.152653 0 0 1-14.942041 56.737959c-6.582857 21.106939-13.165714 43.049796-20.27102 64.992654-5.642449 22.465306-12.747755 43.049796-19.330612 61.544489z m425.06449 47.856327H678.138776c1.776327 13.688163 6.164898 27.271837 13.688163 39.079184a69.590204 69.590204 0 0 0 32.078367 26.435918c17.658776 7.418776 36.989388 11.389388 56.32 10.971428 15.46449-0.417959 30.82449-1.776327 45.766531-4.80653 13.688163-1.776327 26.853878-5.32898 39.183673-10.13551 2.194286-1.776327 3.552653-0.940408 3.552653 3.448163v67.291428c0 1.776327-0.522449 3.448163-0.940408 5.22449-0.835918 1.358367-1.776327 2.194286-3.030204 3.134694-14.106122 6.164898-28.630204 10.553469-43.990204 13.165714-20.68898 3.970612-41.377959 5.746939-62.484898 5.22449-33.541224 0-61.64898-5.22449-84.532245-15.36-21.524898-9.195102-40.542041-23.719184-55.484082-41.691428a162.272653 162.272653 0 0 1-30.30204-57.573878c-6.164898-20.68898-9.299592-42.213878-9.299592-64.156735 0-23.719184 3.552653-47.020408 10.971428-69.903673 7.105306-21.942857 18.076735-42.109388 33.018776-60.186123 14.524082-17.554286 32.600816-31.660408 53.289796-41.691428 20.68898-10.13551 45.348571-13.688163 73.456326-13.688163 23.301224-0.417959 46.706939 3.970612 68.231837 13.688163 18.076735 7.836735 33.854694 19.748571 46.18449 35.108571 11.493878 14.942041 20.68898 31.660408 26.435918 50.050613 5.746939 17.658776 8.359184 35.63102 8.359184 53.603265 0 10.553469-0.417959 19.853061-0.835918 28.212245-0.940408 8.359184-1.358367 14.419592-1.776327 18.390204-0.417959 3.134694-3.134694 5.746939-6.164898 5.746939-2.612245 0-7.523265 0.417959-14.524082 0.835918-7.105306 0.940408-15.46449 1.358367-25.6 1.358367-10.03102 0-20.58449-1.776327-32.078367-1.776326z m-46.602449-64.156735c11.389388 0 19.748571 0 25.077551-0.417959 3.448163-0.417959 7.000816-1.358367 10.13551-3.552653v-4.388572c0-5.642449-0.940408-10.971429-2.716734-16.195918a58.138122 58.138122 0 0 0-57.155919-40.437551 61.711673 61.711673 0 0 0-58.514285 33.436735c-5.32898 10.03102-8.359184 20.58449-9.717551 31.555918z" fill="#9999FF" p-id="3427"></path></svg>