<?xml version="1.0" standalone="no"?><!DOCTYPE svg PUBLIC "-//W3C//DTD SVG 1.1//EN" "http://www.w3.org/Graphics/SVG/1.1/DTD/svg11.dtd"><svg t="1698931245709" class="icon" viewBox="0 0 1024 1024" version="1.1" xmlns="http://www.w3.org/2000/svg" p-id="3586" xmlns:xlink="http://www.w3.org/1999/xlink" width="200" height="200"><path d="M208.979592 1024h606.040816c115.461224 0 208.979592-93.518367 208.979592-208.979592V208.979592C1024 93.518367 930.481633 0 815.020408 0H208.979592C93.518367 0 0 93.518367 0 208.979592v606.040816c0 115.461224 93.518367 208.979592 208.979592 208.979592z" fill="#00005B" p-id="3587"></path><path d="M418.586122 625.789388H255.268571l-33.227755 101.250612c-0.940408 3.866122-4.493061 6.478367-8.463673 6.269388h-82.755919c-4.702041 0-6.373878-2.507755-4.91102-7.627755l141.374694-397.061225c1.358367-4.179592 2.821224-8.881633 4.179592-14.210612 2.194286-8.986122 3.343673-18.181224 3.448163-27.376327-0.10449-1.358367 0.313469-2.716735 1.253878-3.657142 1.044898-0.940408 2.403265-1.358367 3.761632-1.253878h112.326531c3.343673 0 5.22449 1.149388 5.746939 3.552653l159.764898 440.737959c1.462857 4.597551 0 6.896327-4.179592 6.896327h-91.951021c-3.239184 0.313469-6.269388-1.776327-7.000816-4.911021z m-26.226938-85.368164c-2.821224-9.195102-6.060408-19.644082-9.822041-31.137959-3.866122-11.493878-7.836735-23.823673-12.016327-36.989387l-12.747755-39.497143c-4.284082-13.165714-8.150204-25.80898-11.702857-38.034286-3.552653-12.225306-6.687347-23.405714-9.508571-33.645714h-0.731429c-3.970612 18.703673-8.881633 37.198367-14.837551 55.379592-6.582857 20.793469-13.374694 42.004898-20.166531 63.738775-6.791837 21.629388-13.583673 41.795918-20.16653 60.186122z m502.595918-145.867755v263.523266c0 11.598367 0.20898 21.838367 0.417959 30.824489 0.20898 8.986122 0.731429 16.822857 1.358368 23.510205 0.731429 6.687347 1.358367 10.762449 1.776326 15.36 0.522449 3.657143-1.149388 5.537959-4.91102 5.537959h-75.650613a8.359184 8.359184 0 0 1-8.463673-4.911021c-1.044898-3.448163-1.880816-7.105306-2.507755-10.657959a44.930612 44.930612 0 0 1-1.044898-9.090612 126.777469 126.777469 0 0 1-49.528163 26.644898c-15.882449 4.284082-32.287347 6.478367-48.692245 6.582857-16.300408 0.20898-32.391837-2.298776-47.751837-7.314286a94.061714 94.061714 0 0 1-37.511837-23.510204c-11.180408-11.911837-19.644082-26.122449-24.659592-41.482449-6.373878-19.853061-9.404082-40.542041-8.881632-61.33551V395.284898c-0.20898-1.567347 0.313469-3.134694 1.462857-4.179592 1.044898-1.149388 2.612245-1.671837 4.179592-1.358367h84.009796c1.567347-0.20898 3.134694 0.20898 4.284081 1.358367 1.044898 1.044898 1.567347 2.612245 1.358368 4.179592v201.874286c0 18.912653 4.284082 33.854694 12.747755 44.721632 8.463673 10.762449 25.6 16.195918 45.348571 16.195919 10.13551 0.10449 20.27102-1.567347 29.675102-5.12 9.926531-3.448163 19.330612-8.254694 27.898776-14.210613V394.553469c0-3.239184 2.089796-4.806531 6.373877-4.80653h83.800817c1.358367-0.20898 2.716735 0.20898 3.761632 1.149388 0.940408 0.940408 1.358367 2.298776 1.149388 3.657142z" fill="#9999FF" p-id="3588"></path></svg>