<?xml version="1.0" standalone="no"?><!DOCTYPE svg PUBLIC "-//W3C//DTD SVG 1.1//EN" "http://www.w3.org/Graphics/SVG/1.1/DTD/svg11.dtd"><svg t="1698931345040" class="icon" viewBox="0 0 1024 1024" version="1.1" xmlns="http://www.w3.org/2000/svg" p-id="5052" xmlns:xlink="http://www.w3.org/1999/xlink" width="200" height="200"><path d="M208.979592 1024h606.040816c115.461224 0 208.979592-93.518367 208.979592-208.979592V208.979592C1024 93.518367 930.481633 0 815.020408 0H208.979592C93.518367 0 0 93.518367 0 208.979592v606.040816c0 115.461224 93.518367 208.979592 208.979592 208.979592z" fill="#FFFFFF" p-id="5053"></path><path d="M736.026122 188.081633H685.453061c-14.733061 0-25.70449 5.955918-31.451428 16.613877l-74.919184 109.400817 65.619592 89.756734 114.416326-164.257959c12.643265-15.36 8.254694-29.152653 5.851429-34.377143-5.12-10.762449-15.882449-17.136327-28.943674-17.136326z" fill="#75BB43" p-id="5054"></path><path d="M369.893878 203.337143C358.50449 188.081633 343.24898 188.081633 338.233469 188.081633h-49.423673c-12.643265 0-22.987755 5.851429-28.421225 15.986938-5.537959 10.34449-4.388571 22.778776 3.343674 34.377143l183.170612 254.014694-210.651428 293.825306c-7.314286 11.075918-8.359184 23.301224-2.821225 33.645715 5.433469 10.13551 15.777959 15.986939 28.421225 15.986938h50.573061c12.956735 0 24.450612-6.791837 30.093061-17.345306l235.72898-324.963265-208.248164-290.168163-0.104489-0.10449z" fill="#0A99D6" p-id="5055"></path><path d="M643.134694 587.128163l-64.679184 89.129796 116.192653 155.167347 3.030204 1.253878c4.597551 2.089796 9.613061 3.239184 14.628572 3.239183h49.423673c12.016327 0 22.151837-5.32898 27.794286-14.524081 5.955918-9.508571 6.060408-21.420408 0.522449-32.496327L643.134694 587.128163z" fill="#EB2385" p-id="5056"></path></svg>