<?xml version="1.0" standalone="no"?><!DOCTYPE svg PUBLIC "-//W3C//DTD SVG 1.1//EN" "http://www.w3.org/Graphics/SVG/1.1/DTD/svg11.dtd"><svg t="1698931255036" class="icon" viewBox="0 0 1024 1024" version="1.1" xmlns="http://www.w3.org/2000/svg" p-id="3747" xmlns:xlink="http://www.w3.org/1999/xlink" width="200" height="200"><path d="M208.979592 1024h606.040816c115.461224 0 208.979592-93.518367 208.979592-208.979592V208.979592C1024 93.518367 930.481633 0 815.020408 0H208.979592C93.518367 0 0 93.518367 0 208.979592v606.040816c0 115.461224 93.518367 208.979592 208.979592 208.979592z" fill="#FFFFFF" p-id="3748"></path><path d="M386.612245 1024h125.387755v-83.591837H386.612245c-23.092245 0-41.795918 18.703673-41.795918 41.795919s18.703673 41.795918 41.795918 41.795918z" fill="#FF5A75" p-id="3749"></path><path d="M512 1024h125.387755c23.092245 0 41.795918-18.703673 41.795918-41.795918s-18.703673-41.795918-41.795918-41.795919H512v83.591837zM322.35102 431.647347a192.052245 192.052245 0 0 1-2.716734-31.869388c0-105.325714 86.099592-190.798367 192.261224-190.798367 106.161633 0 192.156735 85.472653 192.156735 190.798367 0 10.657959-0.835918 21.315918-2.612245 31.869388C798.82449 432.169796 877.714286 510.850612 877.714286 607.712653 877.714286 704.888163 798.302041 783.673469 700.395102 783.673469c-49.423673 0-94.145306-20.062041-126.328163-52.558367a43.331918 43.331918 0 0 1 0.313469-61.44 44.209633 44.209633 0 0 1 62.171429 0c0.522449 0.522449 1.044898 1.149388 1.567347 1.671837a89.422367 89.422367 0 0 0 62.380408 25.077551c49.319184 0 89.338776-39.706122 89.338775-88.711837s-40.019592-88.711837-89.338775-88.711837c-22.674286 0-43.363265 8.359184-59.141225 22.151837v-0.10449l-1.567347 1.462857-5.01551 5.015511-3.343673 3.343673 0.10449 0.10449L450.35102 730.801633h-0.104489A177.402776 177.402776 0 0 1 323.604898 783.673469C225.697959 783.673469 146.285714 704.888163 146.285714 607.712653c0-96.862041 78.680816-175.333878 176.065306-176.065306z m90.697143 176.065306c0-49.005714-40.019592-88.711837-89.443265-88.711837-49.319184 0-89.338776 39.706122-89.338776 88.711837s40.019592 88.711837 89.338776 88.711837c49.423673 0 89.443265-39.706122 89.443265-88.711837z m203.023674-207.934694c0-57.155918-46.602449-103.444898-104.176327-103.444898-57.573878 0-104.280816 46.28898-104.280816 103.444898 0 57.155918 46.706939 103.444898 104.280816 103.444898 57.573878 0 104.176327-46.28898 104.176327-103.444898z" fill="#24C0FF" p-id="3750"></path><path d="M511.832816 503.275102c-53.812245 0-98.115918-40.542041-103.653877-92.577959 0.20898-1.567347 0.313469-3.239184 0.313469-4.911021 0-24.346122-19.853061-44.094694-44.408163-44.094693s-44.408163 19.748571-44.408163 44.094693c0 1.880816 0.10449 3.657143 0.313469 5.53796 6.060408 99.996735 89.652245 179.2 191.843265 179.2 102.29551 0 185.887347-79.203265 191.947755-179.2 0.20898-1.880816 0.313469-3.657143 0.31347-5.53796 0-24.346122-19.853061-44.094694-44.408163-44.094693s-44.408163 19.748571-44.408164 44.094693c0 1.671837 0.10449 3.343673 0.20898 4.911021-5.433469 52.035918-49.737143 92.577959-103.653878 92.577959z" fill="#FF5A75" p-id="3751"></path></svg>