<?xml version="1.0" standalone="no"?><!DOCTYPE svg PUBLIC "-//W3C//DTD SVG 1.1//EN" "http://www.w3.org/Graphics/SVG/1.1/DTD/svg11.dtd"><svg t="1698931301128" class="icon" viewBox="0 0 1024 1024" version="1.1" xmlns="http://www.w3.org/2000/svg" p-id="4395" xmlns:xlink="http://www.w3.org/1999/xlink" width="200" height="200"><path d="M208.979592 1024h606.040816c115.461224 0 208.979592-93.518367 208.979592-208.979592V208.979592C1024 93.518367 930.481633 0 815.020408 0H208.979592C93.518367 0 0 93.518367 0 208.979592v606.040816c0 115.461224 93.518367 208.979592 208.979592 208.979592z" fill="#FFFFFF" p-id="4396"></path><path d="M365.714286 846.367347h480.653061c23.092245 0 41.795918-18.703673 41.795918-41.795918V219.428571c0-23.092245-18.703673-41.795918-41.795918-41.795918H365.714286c-23.092245 0-41.795918 18.703673-41.795919 41.795918v585.142858c0 23.092245 18.703673 41.795918 41.795919 41.795918z" fill="#185C37" p-id="4397"></path><path d="M323.918367 344.816327h282.122449V177.632653H365.714286c-23.092245 0-41.795918 18.703673-41.795919 41.795918v125.387756z" fill="#21A366" p-id="4398"></path><path d="M323.918367 512h282.122449V344.816327H323.918367v167.183673z" fill="#107C41" p-id="4399"></path><path d="M606.040816 344.816327h282.122449V219.428571c0-23.092245-18.703673-41.795918-41.795918-41.795918H606.040816v167.183674z" fill="#33C481" p-id="4400"></path><path d="M606.040816 512h282.122449V344.816327H606.040816v167.183673z" fill="#21A366" p-id="4401"></path><path d="M606.040816 679.183673h282.122449V512H606.040816v167.183673z" fill="#107C41" p-id="4402"></path><path d="M177.632653 700.081633h292.571429c23.092245 0 41.795918-18.703673 41.795918-41.795919V365.714286c0-23.092245-18.703673-41.795918-41.795918-41.795919H177.632653c-23.092245 0-41.795918 18.703673-41.795918 41.795919v292.571428c0 23.092245 18.703673 41.795918 41.795918 41.795919z" fill="#0D783C" p-id="4403"></path><path d="M290.586122 407.510204h-48.692244l59.872653 103.653878L240.326531 616.489796h49.319183l39.497143-73.247347L368.64 616.489796H417.959184l-61.44-105.325714L416.391837 407.510204h-48.692245l-38.556735 72.097959-38.556735-72.097959z" fill="#FFFFFF" p-id="4404"></path></svg>