<?xml version="1.0" standalone="no"?><!DOCTYPE svg PUBLIC "-//W3C//DTD SVG 1.1//EN" "http://www.w3.org/Graphics/SVG/1.1/DTD/svg11.dtd"><svg t="1698931183275" class="icon" viewBox="0 0 1024 1024" version="1.1" xmlns="http://www.w3.org/2000/svg" p-id="2772" xmlns:xlink="http://www.w3.org/1999/xlink" width="200" height="200"><path d="M208.979592 1024h606.040816c115.461224 0 208.979592-93.518367 208.979592-208.979592V208.979592C1024 93.518367 930.481633 0 815.020408 0H208.979592C93.518367 0 0 93.518367 0 208.979592v606.040816c0 115.461224 93.518367 208.979592 208.979592 208.979592z" fill="#001E36" p-id="2773"></path><path d="M198.530612 737.48898V289.541224c0-3.030204 1.253878-4.806531 4.388572-4.80653 7.314286 0 14.315102 0 24.241632-0.417959 10.44898-0.417959 21.315918-0.417959 33.018776-0.835919 11.702857-0.522449 24.346122-0.522449 37.720816-0.940408C311.379592 282.122449 324.440816 282.122449 337.502041 282.122449c35.526531 0 65.097143 4.388571 89.338775 13.479184 21.733878 7.418776 41.691429 19.644082 58.200817 35.73551 13.897143 13.897143 24.764082 30.92898 31.764898 49.632653 6.478367 18.285714 9.926531 36.989388 9.92653 56.52898 0 37.511837-8.672653 68.440816-26.017959 92.786938-17.345306 24.346122-41.691429 42.631837-69.903673 53.080817-29.570612 10.866939-62.066939 14.837551-97.69796 14.837551-10.44898 0-17.345306 0-21.733877-0.41796-4.284082-0.417959-10.34449-0.417959-18.599184-0.417959v139.702857c0.417959 3.030204-1.776327 5.642449-4.80653 6.060409H203.755102c-3.448163 0-5.22449-1.671837-5.22449-5.642449z m94.667755-222.458776c6.060408 0.417959 11.702857 0.835918 16.927347 0.835918h22.987755c16.927347 0 33.854694-2.507755 49.946123-7.732244 13.897143-3.970612 26.017959-12.225306 35.63102-23.092245 9.090612-10.866939 13.374694-25.70449 13.374694-44.826123a72.097959 72.097959 0 0 0-9.92653-38.765714c-7.418776-11.389388-17.867755-20.062041-30.406531-24.868572-16.091429-6.478367-33.436735-9.090612-51.2-8.672653-11.284898 0-21.315918 0-29.570612 0.41796-8.672653-0.417959-14.733061 0-17.763266 0.417959z m504.476735-26.540408c-13.061224-7.000816-26.958367-11.807347-41.691429-14.837551-16.091429-3.448163-32.182857-5.642449-48.587755-5.642449-8.777143-0.417959-17.867755 0.940408-26.122449 3.030204-5.642449 1.358367-10.34449 4.388571-13.479183 8.777143-2.089796 3.448163-3.448163 7.836735-3.448164 11.702857 0 3.970612 1.776327 7.836735 4.388572 11.284898 3.866122 4.806531 9.090612 8.777143 14.733061 11.807347 10.03102 5.22449 20.37551 10.03102 30.82449 14.315102 23.405714 7.836735 45.97551 18.808163 66.873469 31.869388a101.146122 101.146122 0 0 1 34.272653 36.048979c7.000816 14.001633 10.44898 29.257143 10.031021 44.930613 0.417959 20.37551-5.642449 40.85551-16.927347 57.887346a109.191837 109.191837 0 0 1-48.692245 38.765715c-21.211429 9.090612-47.333878 13.897143-78.576327 13.897143-19.957551 0-39.497143-1.776327-59.036734-5.642449-15.15102-2.612245-30.406531-7.418776-44.303674-13.897143-3.030204-1.776327-5.12-4.806531-4.702041-8.359184v-75.755102c0-1.253878 0.417959-3.030204 1.671837-3.866122 1.358367-0.940408 2.612245-0.417959 3.970612 0.417959 16.927347 10.03102 34.690612 16.927347 53.812245 21.315918 16.509388 4.388571 33.854694 6.582857 51.2 6.582857 16.509388 0 28.212245-2.194286 36.04898-6.164898 6.896327-3.030204 11.702857-10.44898 11.702857-18.285714 0-6.060408-3.448163-11.702857-10.44898-17.345306-6.896327-5.746939-21.211429-12.225306-42.527347-20.48-22.151837-7.836735-42.527347-18.285714-61.648979-31.346939-13.374694-9.613061-24.764082-22.256327-32.914286-36.989388-7.000816-14.001633-10.44898-29.152653-10.03102-44.408163 0-18.703673 5.22449-36.571429 14.733061-52.662857 10.866939-17.449796 26.958367-31.346939 45.662041-40.124082 20.37551-10.44898 45.97551-15.25551 76.8-15.25551 17.763265 0 36.04898 1.358367 53.812245 3.970612 13.061224 1.776327 25.6 5.22449 37.302857 10.031021 1.776327 0.417959 3.552653 2.194286 4.388571 3.866122 0.417959 1.776327 0.835918 3.552653 0.835919 5.22449v70.948571c0 1.776327-0.835918 3.552653-2.089796 4.388572-3.970612 0.835918-6.164898 0.835918-7.836735 0z" fill="#31A8FF" p-id="2774"></path></svg>