<?xml version="1.0" standalone="no"?><!DOCTYPE svg PUBLIC "-//W3C//DTD SVG 1.1//EN" "http://www.w3.org/Graphics/SVG/1.1/DTD/svg11.dtd"><svg t="1698931232528" class="icon" viewBox="0 0 1024 1024" version="1.1" xmlns="http://www.w3.org/2000/svg" p-id="3264" xmlns:xlink="http://www.w3.org/1999/xlink" width="200" height="200"><path d="M208.979592 1024h606.040816c115.461224 0 208.979592-93.518367 208.979592-208.979592V208.979592C1024 93.518367 930.481633 0 815.020408 0H208.979592C93.518367 0 0 93.518367 0 208.979592v606.040816c0 115.461224 93.518367 208.979592 208.979592 208.979592z" fill="#00005B" p-id="3265"></path><path d="M198.530612 745.952653V279.405714c0-3.239184 1.358367-5.01551 4.493061-5.01551 7.732245 0 15.046531 0 25.495511-0.417959 10.866939-0.522449 22.151837-0.522449 34.377143-0.940408 12.329796-0.417959 25.49551-0.417959 39.497142-0.940408 14.106122-0.417959 27.689796-0.417959 41.27347-0.41796 37.198367 0 68.127347 4.493061 93.518367 14.001633 22.674286 7.732245 43.467755 20.37551 60.708572 37.198367 14.524082 14.524082 25.913469 32.182857 33.123265 51.61796 6.791837 19.017143 10.44898 38.556735 10.448979 58.932244 0 38.870204-9.090612 71.053061-27.167346 96.444082-18.181224 25.39102-43.572245 44.408163-73.038368 55.275102-30.92898 11.284898-64.888163 15.36-102.08653 15.36-10.866939 0-18.181224 0-22.674286-0.417959-4.597551-0.417959-10.866939-0.417959-19.539592-0.417959V745.012245c0.417959 3.134694-1.776327 5.851429-5.01551 6.373877h-87.980408c-3.657143 0-5.433469-1.880816-5.43347-5.955918z m98.847347-231.444898c6.373878 0.417959 12.329796 0.835918 17.763265 0.835918h24.032654c17.658776 0 35.422041-2.716735 52.140408-8.150204 14.524082-4.075102 27.271837-12.643265 37.198367-24.032653 9.508571-11.284898 14.106122-26.644898 14.106123-46.602449 0.417959-14.001633-3.239184-28.107755-10.44898-40.333061a65.828571 65.828571 0 0 0-31.764898-25.808979c-16.822857-6.791837-34.899592-9.508571-53.498776-9.090613-11.807347 0-22.256327 0-30.928979 0.522449-8.986122-0.522449-15.36 0-18.599184 0.417959z m309.394286-125.492245h79.412245c4.597551 0 8.150204 3.134694 9.508571 7.209796 1.358367 3.657143 2.298776 7.209796 2.716735 11.389388 0.940408 4.493061 1.880816 9.508571 2.298775 14.001633 0.417959 5.01551 0.940408 10.44898 0.940409 16.300408 13.583673-15.882449 29.884082-28.943673 48.483265-38.974694 20.897959-11.807347 44.930612-17.658776 68.963265-17.658776 3.239184-0.417959 5.955918 1.776327 6.373878 5.015511v90.070204c0 3.657143-2.298776 5.01551-7.209796 5.01551-16.404898-0.417959-33.123265 0.940408-49.005714 4.493061-13.165714 2.716735-25.913469 6.791837-38.138776 12.329796-8.672653 4.075102-16.822857 9.508571-23.092245 16.718367v231.026939c0 4.493061-1.880816 6.269388-5.955918 6.269388h-89.338776a6.269388 6.269388 0 0 1-7.314285-5.43347V494.027755c0-10.866939 0-22.151837-0.41796-33.959184-0.417959-11.702857-0.417959-23.510204-0.940408-35.317551 0-10.34449-0.835918-20.37551-1.776326-30.824489-0.417959-2.194286 0.940408-4.493061 3.134694-4.911021 0-0.522449 0.940408-0.522449 1.358367 0z" fill="#9999FF" p-id="3266"></path></svg>