<?xml version="1.0" standalone="no"?><!DOCTYPE svg PUBLIC "-//W3C//DTD SVG 1.1//EN" "http://www.w3.org/Graphics/SVG/1.1/DTD/svg11.dtd"><svg t="1698931319930" class="icon" viewBox="0 0 1024 1024" version="1.1" xmlns="http://www.w3.org/2000/svg" p-id="4726" xmlns:xlink="http://www.w3.org/1999/xlink" width="200" height="200"><path d="M208.979592 1024h606.040816c115.461224 0 208.979592-93.518367 208.979592-208.979592V208.979592C1024 93.518367 930.481633 0 815.020408 0H208.979592C93.518367 0 0 93.518367 0 208.979592v606.040816c0 115.461224 93.518367 208.979592 208.979592 208.979592z" fill="#FFFFFF" p-id="4727"></path><path d="M723.905306 127.89551l-42.422857 46.18449A379.820408 379.820408 0 0 0 512 134.164898c-210.651429 0-381.387755 171.154286-381.387755 382.223673S301.348571 898.612245 512 898.612245s381.387755-171.154286 381.387755-382.223674c0-127.373061-62.275918-241.057959-157.048163-309.812244l-12.434286-78.680817z" fill="#FFDC00" p-id="4728"></path><path d="M378.67102 224.026122c-3.657143 6.269388-3.657143 13.792653 0 20.062041l32.496327 54.961633 155.794286 269.792653c-19.957551-3.761633-39.915102-5.01551-59.872653-3.761633-95.921633 8.777143-166.974694 81.188571-159.555919 161.123266 7.523265 81.188571 89.756735 139.911837 185.678368 131.134694 96.026122-8.672653 167.079184-81.188571 159.555918-161.123266-2.507755-21.211429-8.672653-38.661224-21.211429-58.723265L514.612245 365.191837C593.084082 324.022857 689.005714 237.818776 727.666939 125.387755c-98.429388 72.411429-223.085714 89.965714-331.546123 88.711837-7.418776 0-13.688163 3.761633-17.449796 9.92653z" fill="#1CBF76" p-id="4729"></path></svg>