<?xml version="1.0" standalone="no"?><!DOCTYPE svg PUBLIC "-//W3C//DTD SVG 1.1//EN" "http://www.w3.org/Graphics/SVG/1.1/DTD/svg11.dtd"><svg t="1698931312465" class="icon" viewBox="0 0 1024 1024" version="1.1" xmlns="http://www.w3.org/2000/svg" p-id="4565" xmlns:xlink="http://www.w3.org/1999/xlink" width="200" height="200"><path d="M208.979592 1024h606.040816c115.461224 0 208.979592-93.518367 208.979592-208.979592V208.979592C1024 93.518367 930.481633 0 815.020408 0H208.979592C93.518367 0 0 93.518367 0 208.979592v606.040816c0 115.461224 93.518367 208.979592 208.979592 208.979592z" fill="#1D80FF" p-id="4566"></path><path d="M870.817959 146.285714l0.940408 0.10449c1.462857 0.313469 2.612245 1.567347 1.149388 5.433469l-0.208979 0.20898c-3.761633 5.12-64.888163 87.457959-99.474286 154.958367-0.313469 0.940408-0.835918 3.448163 3.239183 2.089796l0.41796-0.104489c1.880816-0.522449 9.822041-2.612245 17.763265-4.075103 1.358367-0.20898 6.164898-0.522449 2.194286 5.22449-3.657143 4.493061-61.54449 77.217959-108.251429 158.511021l3.239184-0.31347c0.626939 0.20898 1.253878 0.20898 2.298775 0.417959l3.866123 0.626939c27.271837 4.388571 138.971429 24.868571 219.84653 74.501225 1.044898 1.149388 4.493061 5.32898-3.134694 6.269388-8.045714 0.940408-198.844082 25.077551-324.336326 66.768979v-0.10449l-4.597551 1.567347c1.567347-0.522449 3.030204-1.044898 4.597551-1.462857 15.777959 31.764898 32.600816 66.66449 50.364082 105.116735l8.045714 14.942041c21.524898 40.96 44.826122 88.711837 63.425306 135.941224 0.10449 1.567347 0.522449 8.672653-7.523265 2.089796l-0.522449-0.731429c-7.627755-8.881633-94.145306-108.669388-214.831021-177.214693l-1.671836-0.940409c-29.884082-15.046531-203.650612-70.217143-206.158368-222.563265l0.10449-6.373877c1.567347-31.033469 15.56898-78.158367 1.985306-102.295511-0.835918-2.403265-10.44898-27.898776-50.259592-59.977143-3.343673-2.089796-42.945306-27.062857-106.057143-54.857142l-0.417959-0.20898c-1.567347-0.626939-3.134694-1.358367-4.702041-2.089796l-4.493061-1.985306-2.194286-0.835918c-0.522449-1.149388-1.776327-4.91102 3.239184-4.179592l0.31347 0.10449c6.896327 1.985306 103.131429 29.048163 138.971428 41.273469l0.31347 0.10449c5.22449 1.358367 10.762449 0.940408 15.777959-1.044898 3.866122-1.462857 58.096327-20.897959 105.952653 17.554286l0.940408 0.417959c6.582857 3.552653 26.644898 17.240816 61.962449 64.679183l0.835918-0.626938 0.731429-0.522449 1.985306-1.462858 1.985306-1.358367 2.507755-1.776326 2.507755-1.776327 1.044898-0.940408c21.629388-17.658776 173.139592-136.986122 414.093061-208.770612 0 0 1.044898-0.313469 2.194286-0.31347zM590.367347 616.803265l-4.597551 1.567347c1.567347-0.522449 3.030204-1.044898 4.597551-1.462857v-0.10449z" fill="#DFE8EE" p-id="4567"></path></svg>