<?xml version="1.0" standalone="no"?><!DOCTYPE svg PUBLIC "-//W3C//DTD SVG 1.1//EN" "http://www.w3.org/Graphics/SVG/1.1/DTD/svg11.dtd"><svg t="1698931219840" class="icon" viewBox="0 0 1024 1024" version="1.1" xmlns="http://www.w3.org/2000/svg" p-id="3100" xmlns:xlink="http://www.w3.org/1999/xlink" width="200" height="200"><path d="M208.979592 1024h606.040816c115.461224 0 208.979592-93.518367 208.979592-208.979592V208.979592C1024 93.518367 930.481633 0 815.020408 0H208.979592C93.518367 0 0 93.518367 0 208.979592v606.040816c0 115.461224 93.518367 208.979592 208.979592 208.979592z" fill="#FFFFFF" p-id="3101"></path><path d="M365.714286 846.367347h480.653061c23.092245 0 41.795918-18.703673 41.795918-41.795918V219.428571c0-23.092245-18.703673-41.795918-41.795918-41.795918H365.714286c-23.092245 0-41.795918 18.703673-41.795919 41.795918v585.142858c0 23.092245 18.703673 41.795918 41.795919 41.795918z" fill="#103F91" p-id="3102"></path><path d="M323.918367 344.816327h564.244898V219.428571c0-23.092245-18.703673-41.795918-41.795918-41.795918H365.714286c-23.092245 0-41.795918 18.703673-41.795919 41.795918v125.387756z" fill="#41A5EE" p-id="3103"></path><path d="M323.918367 512h564.244898V344.816327H323.918367v167.183673z" fill="#2B7CD3" p-id="3104"></path><path d="M323.918367 679.183673h564.244898V512H323.918367v167.183673z" fill="#185ABD" p-id="3105"></path><path d="M177.632653 700.081633h292.571429c23.092245 0 41.795918-18.703673 41.795918-41.795919V365.714286c0-23.092245-18.703673-41.795918-41.795918-41.795919H177.632653c-23.092245 0-41.795918 18.703673-41.795918 41.795919v292.571428c0 23.092245 18.703673 41.795918 41.795918 41.795919z" fill="#0E4DB6" p-id="3106"></path><path d="M342.517551 407.510204h-36.884898L270.628571 555.885714 241.998367 407.510204H198.530612l47.020408 208.979592h43.885715L323.918367 476.682449 358.4 616.489796h43.885714L449.306122 407.510204h-43.467755l-28.525714 148.68898L342.517551 407.510204z" fill="#FFFFFF" p-id="3107"></path></svg>