<?xml version="1.0" standalone="no"?><!DOCTYPE svg PUBLIC "-//W3C//DTD SVG 1.1//EN" "http://www.w3.org/Graphics/SVG/1.1/DTD/svg11.dtd"><svg t="1698928840211" class="icon" viewBox="0 0 1024 1024" version="1.1" xmlns="http://www.w3.org/2000/svg" p-id="3585" xmlns:xlink="http://www.w3.org/1999/xlink" width="200" height="200"><path d="M573.70112 626.27328h210.55488V400.5888h-210.55488v225.68448z m16.60416-183.2448c0-2.86208 0-2.88256 2.92352-2.88256h106.71616c4.36224-0.04096 3.88608 0.4352 3.90144-3.80416 0.0256-6.11328 0.0768-12.22656-0.03072-18.33472-0.03072-2.01216 0.63488-2.5856 2.62144-2.56 9.6768 0.09728 19.34848 0.09728 29.0304 0 1.93536 0 2.65728 0.4352 2.61632 2.5344-0.12288 6.61504 0 13.24032-0.0768 19.85536-0.03584 1.8432 0.59392 2.34496 2.37568 2.3296 8.94464-0.07168 17.89952 0 26.84416-0.07168 2.04288 0 2.77504 0.5376 2.7392 2.69824a777.1392 777.1392 0 0 0 0 22.91712c0.0256 1.96608-0.64 2.45248-2.5088 2.43712-8.94464-0.08192-17.89952-0.04096-26.83904-0.04096h-2.58048v2.82624c0 26.11712 0.07168 52.23424 0 78.34624-0.07168 20.34176-2.96448 40.24832-9.5232 59.5712-0.68096 2.01216-1.6128 2.64192-3.712 2.62144-10.47552-0.11264-20.95104-0.0512-31.42656-0.0512h-2.80576c0.39424-1.02912 0.60928-1.75104 0.93184-2.41152 8.50432-17.89952 12.30848-36.83328 12.29312-56.60672-0.0256-27.20768 0-54.42048 0.07168-81.63328v-2.49856h-29.73184c-1.1264 8.01792-2.0224 15.95392-3.37408 23.81824-5.74464 33.17248-14.67392 65.47968-28.86656 96.11264-3.4048 7.36256-7.64416 14.35136-11.62752 21.44256-0.46592 0.82432-1.75104 1.67424-2.65216 1.68448-11.56608 0.11264-23.13728 0.0768-34.69824 0.07168-0.29184-0.00512-0.56832-0.0768-1.15712-0.14848 28.09344-43.7248 42.34752-91.776 48.11264-143.1296h-3.01568c-14.6176 0-29.25056-0.03584-43.85792 0.04096-2.04288 0-2.78528-0.48128-2.74944-2.65216 0.13312-7.49568 0.0512-14.99136 0.05632-22.48192z" fill="#fabe05" p-id="3586"></path><path d="M849.92 51.2h-675.84c-67.8656 0-122.88 55.0144-122.88 122.88v675.84c0 67.8656 55.0144 122.88 122.88 122.88h675.84c67.8656 0 122.88-55.0144 122.88-122.88V174.08c0-67.8656-55.0144-122.88-122.88-122.88zM502.21568 628.80256c-5.34528 9.33376-10.73664 18.64704-16.02048 28.01152-0.79872 1.41824-1.78688 1.41824-3.05664 1.2544a235.45856 235.45856 0 0 1-42.45504-9.51808c-22.65088-7.33184-43.776-17.67424-62.66368-32.3072a147.29216 147.29216 0 0 1-23.13728-22.43072l-1.53088-1.81248c-2.38592 2.87232-4.63872 5.67296-6.98368 8.40192-12.47744 14.3872-27.62752 25.28256-44.47744 33.92-19.87584 10.1888-40.98048 16.75264-62.9248 20.57728-10.4448 1.81248-21.02784 2.83648-31.55456 4.18816-0.8704 0.04608-1.74592 0.04096-2.61632-0.01536 1.52064-4.87936 2.92864-9.44128 4.36736-13.97248 1.792-5.67296 3.65056-11.35104 5.376-17.05472 0.512-1.68448 1.26976-2.3552 3.17952-2.44736 36.34176-1.70496 68.72576-13.71136 96.4096-37.57056 4.15744-3.584 7.61344-7.9872 11.35104-12.02688 0.59904-0.7424 1.15712-1.51552 1.66912-2.31424h-114.54976c-0.58368 0-1.16736-0.0256-1.74592 0-1.26464 0.04096-1.79712-0.4864-1.792-1.81248 0.03584-8.51456 0.03584-17.024 0-25.53856 0-1.21344 0.4352-1.74592 1.64864-1.69984 0.79872 0.02048 1.59744 0 2.39616 0h122.26048v-4.67968c0-6.25664-0.08704-12.51328 0.04608-18.76992 0.04096-2.05824-0.65024-2.55488-2.62144-2.54976-25.90208 0.0512-51.80416 0.06656-77.70112 0.03584h-36.01408c-2.92352 0-2.92864 0-2.92864-2.87744 0-7.7056 0.08192-15.42144-0.05632-23.13216-0.04096-2.28352 0.74752-2.7904 2.88256-2.78528 37.68832 0.0512 75.37664 0.06656 113.06496 0.03584h3.15904V468.736h-3.85536c-37.46816 0-74.9312 0.01536-112.39936 0.04608-2.15552 0-2.88768-0.4608-2.84672-2.74432 0.14848-7.63392 0.05632-15.27808 0.05632-22.91712 0-2.95936 0-2.97472 3.05664-2.97472h111.74912c0.58368-0.04096 1.16736-0.04096 1.74592 0 2.08384 0.3072 2.74432-0.4864 2.70336-2.61632-0.13824-6.39488-0.0512-12.78464-0.0512-19.48672h-123.20256c-3.05664 0-3.05664 0-3.05664-3.08736 0-7.7824 0.06656-15.5648-0.04096-23.35232-0.03072-2.01728 0.56832-2.61632 2.57536-2.59072 15.27808 0.0768 30.55616 0.04096 45.83424 0.04096h2.64704c-0.60416-5.03808-1.19296-9.9072-1.792-14.7712-0.29696-2.45248-0.55296-4.9152-0.93184-7.36256-0.25088-1.57184 0.32256-2.05312 1.85856-2.05312 10.69568 0.04096 21.39136 0.04096 32.08704 0 1.60768 0 2.13504 0.61952 2.34496 2.10432 0.96768 6.912 2.01728 13.81376 3.05664 20.72064 0.0512 0.34816 0.12288 0.69632 0.2304 1.2544 0.7936 0.04096 1.5616 0.11776 2.33472 0.11776 36.08576 0 72.17664 0.01024 108.2624 0.04096 1.8432 0 2.69824-0.37888 2.92352-2.40128 0.73216-6.5024 1.74592-12.96896 2.51392-19.47136 0.19968-1.67936 0.6656-2.3808 2.49856-2.36544 10.69568 0.08192 21.39136 0.08192 32.08192 0 1.9712 0 2.54976 0.58368 2.28864 2.52416-0.8704 6.54848-1.6384 13.12768-2.44224 19.69664-0.07168 0.56832-0.10752 1.14176-0.18944 1.98144h48.04096c2.87232 0 2.88768 0 2.8928 2.91328v23.13728c0 2.93376 0 2.93376-3.05664 2.93376h-124.032c-0.1024 0.47104-0.16896 0.9472-0.21504 1.42336 0 6.26176 0.0256 12.51328-0.03584 18.76992 0 1.40288 0.4096 2.048 1.84832 1.91488 0.57856-0.0512 1.16736 0 1.74592 0h112.18944c3.36896 0 3.36896 0 3.36896 3.26144v25.18528c-0.95744 0.04608-1.65888 0.11264-2.36544 0.11264h-113.93536c-2.82112 0-2.82624 0-2.82624 2.83648v18.36032h115.82976c3.29216 0 3.29216 0 3.29216 3.31264v22.4768c0 2.94912 0 2.95936-3.01568 2.95936h-112.40448c-4.46464 0-3.66592-0.20992-3.6864 3.74784-0.04096 7.26528 0 14.5408 0 22.03648 0.68608 0.0512 1.31072 0.14336 1.92512 0.14336h121.79456c3.58912 0 3.58912 0 3.58912 3.5328v21.82656c0 3.72736 0 3.73248-3.64032 3.73248h-114.85696c2.00192 2.18624 3.52256 3.98336 5.16096 5.65248 12.9536 13.12768 28.29824 22.67136 45.0816 30.08 17.06496 7.5264 34.87232 12.43136 53.25312 15.27808 6.15936 0.95232 12.3904 1.48992 18.5856 2.2272 0.3584 0.07168 0.71168 0.15872 1.05984 0.26624-0.1536 0.55808-0.36352 1.09568-0.60928 1.6128z m316.85632 25.63072a3.55328 3.55328 0 0 1-1.49504 1.60768c-0.52736 0.27136-1.28512 0.08192-1.94048 0.08192-85.69856 0-171.40736-0.01536-257.11616-0.03584a31.78496 31.78496 0 0 1-7.77216-0.87552c-7.78752-2.01216-11.96032-8.17664-11.96032-17.3312l0.02048-131.82464V374.23616c0-3.25632 0-3.25632 3.15392-3.25632 86.0672 0 172.12416 0.01536 258.19136 0.0512a26.51136 26.51136 0 0 1 8.32512 1.23904c6.69696 2.2528 10.42432 8.01792 10.6496 15.68256v264.54016c0.00512 0.65536 0.19456 1.39776-0.05632 1.94048z" fill="#fabe05" p-id="3587"></path></svg>